<svg version="1.1" xmlns="http://www.w3.org/2000/svg" viewBox="0 0 381.8666687011719 243.99999999999994" width="381.8666687011719" height="243.99999999999994">
  <!-- svg-source:excalidraw -->
  
  <defs>
    <style class="style-fonts">
      @font-face {
        font-family: "Virgil";
        src: url("https://excalidraw.com/Virgil.woff2");
      }
      @font-face {
        font-family: "Cascadia";
        src: url("https://excalidraw.com/Cascadia.woff2");
      }
      @font-face {
        font-family: "Assistant";
        src: url("https://excalidraw.com/Assistant-Regular.woff2");
      }
    </style>
    
  </defs>
  <g transform="translate(66 10) rotate(0 46.93333435058594 12)"><text x="0" y="19.3125" font-family="Cascadia, Segoe UI Emoji" font-size="20px" fill="#000000" text-anchor="start" style="white-space: pre;" direction="ltr" dominant-baseline="alphabetic">Planning</text></g><g transform="translate(278 136) rotate(0 46.93333435058594 12)"><text x="0" y="19.3125" font-family="Cascadia, Segoe UI Emoji" font-size="20px" fill="#000000" text-anchor="start" style="white-space: pre;" direction="ltr" dominant-baseline="alphabetic">Decision</text></g><g transform="translate(10 209.99999999999994) rotate(0 35.20000076293945 12)"><text x="0" y="19.3125" font-family="Cascadia, Segoe UI Emoji" font-size="20px" fill="#000000" text-anchor="start" style="white-space: pre;" direction="ltr" dominant-baseline="alphabetic">Action</text></g><g stroke-linecap="round"><g transform="translate(187 33) rotate(0 47 42.5)"><path d="M0 0 C15.67 14.17, 78.33 70.83, 94 85 M0 0 C15.67 14.17, 78.33 70.83, 94 85" stroke="#000000" stroke-width="1" fill="none"></path></g><g transform="translate(187 33) rotate(0 47 42.5)"><path d="M70.84 75.59 C77.76 78.4, 84.67 81.21, 94 85 M70.84 75.59 C79.55 79.13, 88.27 82.67, 94 85" stroke="#000000" stroke-width="1" fill="none"></path></g><g transform="translate(187 33) rotate(0 47 42.5)"><path d="M82.31 62.9 C85.8 69.5, 89.29 76.1, 94 85 M82.31 62.9 C86.71 71.21, 91.11 79.53, 94 85" stroke="#000000" stroke-width="1" fill="none"></path></g></g><mask></mask><g stroke-linecap="round"><g transform="translate(266.28351546666545 130.36759463638003) rotate(0 -44.141757733332724 -43.18379731819002)"><path d="M0 0 C-14.71 -14.39, -73.57 -71.97, -88.28 -86.37 M0 0 C-14.71 -14.39, -73.57 -71.97, -88.28 -86.37" stroke="#000000" stroke-width="1" fill="none"></path></g><g transform="translate(266.28351546666545 130.36759463638003) rotate(0 -44.141757733332724 -43.18379731819002)"><path d="M-65.51 -76.05 C-70.45 -78.29, -75.39 -80.53, -88.28 -86.37 M-65.51 -76.05 C-72.24 -79.1, -78.97 -82.15, -88.28 -86.37" stroke="#000000" stroke-width="1" fill="none"></path></g><g transform="translate(266.28351546666545 130.36759463638003) rotate(0 -44.141757733332724 -43.18379731819002)"><path d="M-77.47 -63.83 C-79.82 -68.72, -82.16 -73.6, -88.28 -86.37 M-77.47 -63.83 C-80.67 -70.49, -83.86 -77.15, -88.28 -86.37" stroke="#000000" stroke-width="1" fill="none"></path></g></g><mask></mask><g stroke-linecap="round"><g transform="translate(79.04216176050113 48) rotate(0 -25.53304096875422 76.49999999999997)"><path d="M0 0 C-8.51 25.5, -42.56 127.5, -51.07 153 M0 0 C-8.51 25.5, -42.56 127.5, -51.07 153" stroke="#000000" stroke-width="1" fill="none"></path></g><g transform="translate(79.04216176050113 48) rotate(0 -25.53304096875422 76.49999999999997)"><path d="M-51.74 128.01 C-51.54 135.58, -51.33 143.15, -51.07 153 M-51.74 128.01 C-51.52 135.99, -51.31 143.97, -51.07 153" stroke="#000000" stroke-width="1" fill="none"></path></g><g transform="translate(79.04216176050113 48) rotate(0 -25.53304096875422 76.49999999999997)"><path d="M-35.52 133.42 C-40.23 139.35, -44.94 145.29, -51.07 153 M-35.52 133.42 C-40.48 139.67, -45.45 145.93, -51.07 153" stroke="#000000" stroke-width="1" fill="none"></path></g></g><mask></mask><g stroke-linecap="round"><g transform="translate(49 201.99999999999994) rotate(0 25.5 -75.49999999999997)"><path d="M0 0 C8.5 -25.17, 42.5 -125.83, 51 -151 M0 0 C8.5 -25.17, 42.5 -125.83, 51 -151" stroke="#000000" stroke-width="1" fill="none"></path></g><g transform="translate(49 201.99999999999994) rotate(0 25.5 -75.49999999999997)"><path d="M51.58 -126.01 C51.4 -133.96, 51.21 -141.91, 51 -151 M51.58 -126.01 C51.37 -135.03, 51.16 -144.05, 51 -151" stroke="#000000" stroke-width="1" fill="none"></path></g><g transform="translate(49 201.99999999999994) rotate(0 25.5 -75.49999999999997)"><path d="M35.38 -131.48 C40.35 -137.69, 45.32 -143.9, 51 -151 M35.38 -131.48 C41.02 -138.52, 46.66 -145.57, 51 -151" stroke="#000000" stroke-width="1" fill="none"></path></g></g><mask></mask><g stroke-linecap="round"><g transform="translate(91.00000000000023 217.69785454761183) rotate(0 88.55346904587384 -28.119659476716038)"><path d="M0 0 C29.52 -9.37, 147.59 -46.87, 177.11 -56.24 M0 0 C29.52 -9.37, 147.59 -46.87, 177.11 -56.24" stroke="#000000" stroke-width="1" fill="none"></path></g><g transform="translate(91.00000000000023 217.69785454761183) rotate(0 88.55346904587384 -28.119659476716038)"><path d="M157.3 -40.98 C163.1 -45.45, 168.89 -49.91, 177.11 -56.24 M157.3 -40.98 C162.76 -45.18, 168.22 -49.39, 177.11 -56.24" stroke="#000000" stroke-width="1" fill="none"></path></g><g transform="translate(91.00000000000023 217.69785454761183) rotate(0 88.55346904587384 -28.119659476716038)"><path d="M152.13 -57.28 C159.44 -56.97, 166.75 -56.67, 177.11 -56.24 M152.13 -57.28 C159.01 -56.99, 165.89 -56.71, 177.11 -56.24" stroke="#000000" stroke-width="1" fill="none"></path></g></g><mask></mask><g stroke-linecap="round"><g transform="translate(270 177.99999999999994) rotate(0 -87 28)"><path d="M0 0 C-29 9.33, -145 46.67, -174 56 M0 0 C-29 9.33, -145 46.67, -174 56" stroke="#000000" stroke-width="1" fill="none"></path></g><g transform="translate(270 177.99999999999994) rotate(0 -87 28)"><path d="M-154.26 40.66 C-161.36 46.18, -168.47 51.7, -174 56 M-154.26 40.66 C-160.12 45.22, -165.99 49.78, -174 56" stroke="#000000" stroke-width="1" fill="none"></path></g><g transform="translate(270 177.99999999999994) rotate(0 -87 28)"><path d="M-149.02 56.94 C-158.01 56.6, -167 56.26, -174 56 M-149.02 56.94 C-156.44 56.66, -163.86 56.38, -174 56" stroke="#000000" stroke-width="1" fill="none"></path></g></g><mask></mask></svg>