<svg id="Graphic_Elements" data-name="Graphic Elements" xmlns="http://www.w3.org/2000/svg" viewBox="0 0 1200 100"><path d="M1200,114.36c-4.43.71-3,5.73-7.47,3.8a1.19,1.19,0,0,1-.8-.76c-1.15-4.25-6.82-4.77-12.82-7.13-.6-.24-.42-.93.17-.79,15,3.8,13.9,5.11,16.65,4.29a9.18,9.18,0,0,1,4.27.12Z"/><path d="M0,56.51c8.44-.92,10.51,4.86,16.08.62,3-2.3,9.44-3.62,11.41-3.87-3.24,2.49-12.57,2.68-12.67,7.86a2,2,0,0,1-2.75,1.8c-2.85-1-.9-2.65-5.05-4.44a18.64,18.64,0,0,0-7-1Z"/><path d="M658.07,86.11c.75,1.16,2.24,1.25,3.65,2.32.37.29,0,.91-.33.83-7.89-2.41-12.87-6.36-15.22-2.47-1.18,2-.19,2.27,2.77,6.34,1.07,1.48,3.35.6,5,3.48,3.31,5.93,4.34,6.93,4.42,7.79.29,3-4.41-7.22-7.49-7.9-.47.42,1.08,2.56-2.55-.26-.66.13-2.51,2.39-3.62.61-1.56-2.48-5.37-1.47-6.61,0-2.86,3.31-2.38,2.82-3.52,3,.28-1.33,1-2.11,3.49-4.57a9.37,9.37,0,0,1,5.16-2.35,4.58,4.58,0,0,0-2.5-1.36c-3.17-1-2.6,1.91-5.43,1.55-2.21-.28-1.08-3.71-4.52-1.57.75,2.13,3.73,4.39,3.27,6.2l0,0c-5.53-5.82-5.14-6.13-7-3.91,6.79,3.62,5.43,8.39,3.44,5.64-1.14-1.58-3-3.75-4.83-3.5-2.53.33-.8,1.88-3.11,3.31S619.7,98,618,96.91c-2.68-1.69-4.85.65-6.43,3.39-2,3.41-3.6.44,2.79-4.94,1.11-.93,1.88-.7,3.94-.25,3.23.72,3.35-1.27,5.09-.38.47.24,2.09-1.19,3.58-2.37.49-.4.12-.85-.35-1-1.62-.43-1.87.55-3.1,1.14-2.49,1.2-2.34-2.18-4.07-2.51-1.52-.29-4.22-.93-9.09,2.46-4.12,2.86-4.62,3.31-5.06,2.92-.11-.48.31-.66.59-.85,6.79-4.76,9.25-6.64,12.38-6.88,4.38-.35,9.62-7.31,18.35-7.27.78,0,2-1.62,2.3.77.11,1.06,2.6,3,6.9,1.51.47-.16,1.85-1.38,2.31.06s.83.32,6.24,2a14.77,14.77,0,0,0,1.46.5l0,0a3.69,3.69,0,0,0,2.36.94Zm-24-.52c-1-1.79-.49-2.47-1.63-2.67-1.7-.3-2-1.13-7.92,2.85-1.48,1,1.66,3.89,3,3.13C629.54,87.71,631.89,87.09,634,85.59Zm-5.75,4.08c1.23,1.17,1.54.2,7.05-1.4,3.52-1,3.11.5,4.41.88a13,13,0,0,1,5.56,2.64c.29.27,1.1-.13.84-.6-.7-1.26-1.25-2.67-3.06-2.72-.63,0-3.81-.86-3.1-2.19.37-.71-1.74-1.36-3.33-.61C633.91,87,631.18,88.29,628.29,89.67Zm-5.92-2.48,0,.12.14-.06Z"/><path d="M398.47,76c-3.63.69-8.78,2.57-9.52,6.26a2.32,2.32,0,0,1-2.41,2c-4.6-.53.54-4-8.49-7.16a26.59,26.59,0,0,0-6.73-1.63c-1.7-.13-1.39-1.22-.9-1.23,2.26,0,5.58,1.4,4.86-.41-.91-2.29-11.06-2.67-12.68-.49s-4.17-.95-4.48-1.74c-1.33-3.37-11.22-5.4-11.68-6.33,10.31-.32,12.19,6.51,15,4.12.16-.14.47-.3.61-.23,1.31.64,2-.38,2.79-1,2.79-2.17,7.15-3.81,8.1-3.49.09,1.12-9.08,4.14-8.68,5.88.13.56.26.36,4.9.31,7.21-.09,6.51,1,10.12.24,2.31-.49,1,.81,3.41.75a40.61,40.61,0,0,1,11.39,1.72,35.59,35.59,0,0,0,6.16.53,3.84,3.84,0,0,0,2.38-.78,11.06,11.06,0,0,1,4.61-1.41c2.79-.39,4.36-1,6.55.8,1.45,1.17,1.73.63,10.13.1,2-.12.78,1.23,4.68,1.68a2.83,2.83,0,0,1,2.52,2.06A27.46,27.46,0,0,1,432.71,82c.49,3.57,1.13,4,.18,4.32-2.22.82-.44-7.63-5.74-9.61-2.91-1.08-4.36,3.45-7-.56a1.45,1.45,0,0,0-1.32-.69l-.08-.1.11.07,4.79,8.34c.5,2.1-2.29-2.42-5.76-6.29-2.28-2.54-2.55-1.06-5.15,2.72-.66-.62-.38-.72,1.51-4,.45-.77-.43-1.31-1.12-1-.47.18-3.75,3.25-4.47.25-.29-1.2-1-1.37-2-1.44-5.61-.39-7.84,3.74-11.19,5,.49-1.06.79-1,3.09-3.25Zm-18.49,0c3.64,1.67,5.3,4.79,7.42,3.2,1.2-.9.76.88,2.88-.89,3-2.52,5.55-2.38,7.28-3.6,0,0-6.28-.86-12.32-1.36C383.05,73.1,381,73.35,380,75.93Z"/><path d="M1015.83,112.05c1.46-1.66,0-2.62-1.12-4.91-1-2.08-4.43-4.11-6.27-2.66-1.51,1.19-3.78.48-4.11-.45-.57-1.59-2.16-1.09-4.09-1.36-1-.13,0-2.13,2.69-2.15a18.69,18.69,0,0,0,6.56-1c1.91-.68.29,1.79,2,2.26,4.08,1.12,3.8,1.36,6.4,7.77,3.56-1,4.06-.37,5.26-2.5,1.62-2.86,3-2.41,9-4.34,2.18-.7.84,1.34,2.33,1.5,3.09.35,2.87.25,5.09,3.68.7,1.1,3.67,7.69,1.52,6.14-1.16-.84-4.73-10.88-8.61-6.79-.45.47-2.73,2.18-1,2.77,1.12.36,2.31-.53,4.3,2.52a23,23,0,0,1,2.6,8.29c-.11.8-1.27,1.29-1.77-.38-.85-2.81-5.85-10.74-9.48-7.33-1.48,1.38-3.55,1.35-5.43,1.66-.79.13-1.12-.41-.85-1.14.48-1.23.86-1.9-1.09-2.42-.44-.11-.89-.48-1.31-.18s-.13.84-.06,1.27c.13.81-.55,1-.68.65a1.3,1.3,0,0,0-2-.88Zm11.91-2.85c.41-7.08-6.67.09-4-.09A9.08,9.08,0,0,1,1027.74,109.2Z"/><path d="M946.41,129.62c1,1,3.05.18,3.52.11.68-.11.91.84,1.6.78,6.07-.58.59-.85,9.63,2.13,6.37,2.1,8.82,5.83,10.52,3.53a.61.61,0,0,1,1.11.14c.59,1.94.71-.71,11-.06.09.74-.37.7-.71.74-8.16,1.08-9.52.77-10.53,2.8-.62,1.24-3.33,2.26-4.44-.19-1.21-2.7-3.68-3.66-10.08-7.06a25.66,25.66,0,0,1,1.51,4.56c.08.4-.64.78-1,.41,0,0-2.18-3.26-2.71-4-1.34-1.92-4.13-1.84-4.92-.47-1.08,1.87-3.61,2.8-4.25.9-2.36-7-7.86-2.11-10.45-.42-.53.34-1-.29-.61-.65,2.38-2.22,5.06-4.63,8.3-4.38,2.32.18-.36-5.13-4.41-5.32-3.69-.16-3.78.56-7.45,1.35-.92.19-1.56-1.25-.38-1.57,3.91-1.05,9.86-3.83,13-.84s3.91,2,4.77,1c3.1-3.53,7.14-4.57,9.08-4.12,1.12.26,1.18,2.16-1.21,1.64s-6.08,1.56-4.63,3.15-.23,1.67-.8,2.94a4.84,4.84,0,0,1-5.45,2.94Z"/><path d="M171.9,56.22c0,.69,1.55,1,1,1.81-1,1.5-5.19-2.3-8.42-1.92-2.71.31-2.43,1.71-3.28,2.81a2.49,2.49,0,0,1-3.83.12,6,6,0,0,1-1-2.08c-2.68-6.87-10.77-3-11.82-5.47-.28-.65-7.1-1.11-7.92,2.23-.92,3.73-5.69,4.3-5.69.7a6.76,6.76,0,0,0-4.16-6.11,59.37,59.37,0,0,0-6.78-2.2.69.69,0,0,1,.21-1.33c3.16,0,8.87,1,10.46,3.75,2.8,4.92,4,2.51,4.47,2.69,1.44.57,2.45-.43,3.57-1a12.45,12.45,0,0,1,10.45.35c.94.62,4.71-.63,7.4,3a3.43,3.43,0,0,0,2.58,1.77c1.34,0,2.73.46,4.05-.34,4.16-2.49,5.42,1.17,9.77.26,8.16-1.71,7.81-.85,14.17-.57,1,0,1.65-.82,2.54-.93s1.47,1,2.54.91c3.75-.28,14,2.56,11.35,3,0,0-1.44-.42-8.85-1.47-3.78-.54-4.6.1-5.22,1.12-2.48,4-6.68,1.39-6.58.92.31-1.45-.9-1.59-1.73-2C178.49,55,174.83,55.64,171.9,56.22Z"/><path d="M801.09,135.63c-3.26,1.29-4.54.93-8.84,2.32-2.28.74-2,1.93-2.71,2.88-1,1.29-3.3,1.3-3.73-.4-.8-3.2-11.1-3.74-12.14-4.72.57-.54,1.34.19,1.86-.32a3.67,3.67,0,0,0-1.44-3.39c-4.62-4.47-10.68.83-10.71-1.79,0-.81,5.06-2.09,7.1-2.08,3.92,0,5.71,5.47,7.62,3.09.13-.15.45-.35.57-.29,1.89.92,2.79-2.36,5.87-2.36,5.55,0,4.49,3,8.15,2.09,2.4-.61,8.21-1.7,10.22,1,2.11,2.85,5.14,3.05,6.36,1.92.16-.16.41-.38.57-.35,1.73.31,3.55-.41,5.22.43,2.28,1.14,4.35,4.32,3.12,5.38s-1.6-1-5.73-3.19c-1.16-.61-3-.95-3.27.17-.89,3.13-4.51,3.84-7.48,2.9-.93-.29-1-.67-.35-1.45s.6-.73-.28-1.81c0-1-.8-1.44-1.33-2.09-1.62-2-3.15-1.69-9.19-1-2.07.25-.81-1-3-1.64-7.49-2.16-7.76,2.82-8.21,5,3.26-.18,4.8,1.61,7.73,1.42,1.35-.1,1.1-1.09,1.88-1.16,1-.08.5,1.64,2,1C794.69,135.42,797.94,135.71,801.09,135.63Z"/><path d="M542.45,112.2c.47-.37.32-.35,6.66,2.21,5,2,5.7,5.26,7.68,3.51a.67.67,0,0,1,.85.1c1.65,1.25,14.11-.41,15.23.86.14,1.31-3.89-.35-6.45,1.8,3.83,1.72,4.58,1.61,5.41,3.87,2.8,7.66,1.72,7.62,3.57,7,3.33-1.2,5.34-.36,6.94-1.48a.72.72,0,0,1,1,.15,7.42,7.42,0,0,0,3.48,2.15c1.83.78,5.71,4,5,5-2.88-1.24-5-5.26-8.1-2.91-1.61,1.23-2.19,1.1-3.35-.47a4,4,0,0,0-5.7-.49c-1.6,1.62-.94.27-3.64,1.55-3.5,1.65-4.16,2.07-4.27,1.31a.65.65,0,0,1,.31-.54,13.53,13.53,0,0,0,3.3-1.63c1-.55,1.82-.92,1.4-2-1.08-2.81-3.42-7.26-6.21-8.65-1.51-.75-1.28,0-4.84.84a6,6,0,0,1-4.24-.66c-1.88-.63-1.88-.63-2.88-2.47-2.34,1.18-2.85,1.75-7.36,5.07-.24.18-.58.45-.8.21-.81-.85,6.33-5.63,6.88-6,1.38-1,1.35-1.1-5.56-5.43-1.17-.73-2.43-1.33-3.64-2C542.82,112.84,542.45,112.66,542.45,112.2Z"/><path d="M1127.57,125.79c-.13,2.94,0,3.44-.68,3.54-1.37.2-.84-2-1.7-3.46a4.11,4.11,0,0,0-2.81,1.92c-2.14,3.1-2.27,4.23-2.91,4-1-.38,1.56-5.11,4.18-6.9,1.68-1.14,1.26-1.52.92-2.67-.52-1.76-2.35.42-1.72-1.42.4-1.17-2.55-1.89-3.68-1.19-1.85,1.12-4.51,1.46-4.35-.66.19-2.33-2.72-4.24-4.79-3.64-4.28,1.24-5.72,3.79-7.24,2.89.19-1.25,6.19-4.26,7.9-4.88,3-1.08,3.39,1.09,7.24,2.13a1.91,1.91,0,0,0,1.13.1c3-1,.92,1,2.58,1.61,1,.35,3.24.87,3.51,1.1,3.15,2.64,7.65.07,9.14,1.83.26.31,1,.29,1.54.28,3.72,0,3.38,3.11,6.27,6.11,4.21,4.36,4.73,4.69,4.27,5.15-.9.9-2.41-2.34-4.42-1.59-.63.23-1.13-.43-1.35-1-.85-2.37-5.77-5.43-8.12-2.94a4.34,4.34,0,0,1-2.46,1.2C1128.68,127.47,1128.36,127.29,1127.57,125.79Zm8.57-3.11c.12.07.17.43.4.11l-.41-.1a2.54,2.54,0,0,0-2.3-.61A3.11,3.11,0,0,0,1136.14,122.68Zm-8.57-1.06c-.91.36.07,1.59.4.93C1128.19,122.1,1127.94,121.83,1127.57,121.62Z"/><path d="M283.24,66.21a1.19,1.19,0,0,1-1.22.87c-2.41,0-4.71.69-7.07,1-2.21.32-5.4,1.13-5.82,3.31-.33,1.67-3.45,1-3.93-1.14-.81-3.58-18-5-14.51-5.78,2.2-.51.93.53,9.93-2.88-.92-1.21-1.51-1.49-3-1.21a19.78,19.78,0,0,0-5,1.62c-2.6,1.29-2.76-.22-2-.47,4.22-1.49,9.69-4.89,12.81-2.46,2.39,1.86,3.73,1.59,4.81.78,1.24-.93,1.58.34,5.17.21,3.4-.11,3.78,1.92,4.9.31.32-.46.94-.49,1.15,0,.53,1.2,1.52,1.2,2.52,1.12,2.19-.17,8.12.86,9.08,2.38-6.52-.82-5.78-1-9.7-.67a.52.52,0,0,0-.15,1,12.64,12.64,0,0,0,5.27,1.56c.5,0,1.56,1.45-3.22.49a4.76,4.76,0,0,0-2.41-1.15c-.65-.2-.82.78-.25,1A6.06,6.06,0,0,0,283.24,66.21Zm-4.8-.07a9.46,9.46,0,0,1-3.19-2.61c-.35-.47-3.21-.83-4.74.4-4.06,3.27-7,.76-10.11,1.2a.35.35,0,0,1-.39-.43c.08-.43.64-.28,2.35-.49.55-.06,1-.71.1-1.3-.62-.43-.18-.14-6.25,1.19a5.42,5.42,0,0,0-2.56,1.05c11,.64,12.22,4.09,13.41,1.89.16-.29.62-.39.77-.09,1.35,2.62,3.43-.53,8.84-.37A2.52,2.52,0,0,0,278.44,66.14Z"/><path d="M656.22,76c-.17-2.55-3.91-6.4-6-7.88-2.6-1.82-2.22,1.69-5.46.59-1.81-.61-.53-1.7-1.53-2.27-3.1-1.76-6.58,2.5-10.91,4.81-.55.29-.94-.28-.41-.66,14.66-10.45,8.86-4.17,16.54-7.07,1.83-.7.26,1.63,1.83,2.4,3.8,1.85,3.32,3,5,2.22a17.23,17.23,0,0,1,4.7-1.87h0c-.66,1-1.58,1.1-4.29,2.59-1.12.62-1.43.16,1.43,6,1.18,2.4,1.8-.95,5.24,1.66,3.08,2.32,2.37,4.11,5,4.53,3.25.53,5,2.71,9.34,1.41,4.59-1.38,11-2.67,11.45-1.81,0,.72-3.79.7-7.43,1.69-4.62,1.27-2.84,6.87-8.19,5.06-2.21-.75-2.79-1.16-2.1-1.88,1.55-1.64-5.79-3.49-8.42-3.9-4.11-.63-4.28-.66-4.69-1.33,1.9-.51,3.75.22,5.63.06-1.17-2.17-3.05-3.17-5.1-2.81-1.55.27-1.2,1.35-2,2.29-1.58,1.89-4.23,1.1-4.2-.63.05-2.63-2.48-4.66-5.51-3.87-.73.19-3.75,1.33-3.91,1.37a.7.7,0,0,1-.61-1.21,17.45,17.45,0,0,1,7.18-2.34c1.47-.12,1.9.51,3.52,2.26,1.47,1.59,2.52.88,4,.56l.09.13Z"/><path d="M605.65,123.33c-3.77-2.64-5.55-1.87-13.12-2.62-.15-1-.1-.63,9-.76,3.85,0,4,.48,10.29,1.21,1.32.16,1.33-.66,2.26-.92.77-.21,2.47.57.57,2.25a2.47,2.47,0,0,0,1.58.92,15,15,0,0,1,5.5,3.27c2.1,2-.28-.84,12-3,1-.19,2.86,1.13-3.54,2.31a29.57,29.57,0,0,0-5.23,1.78c-2.85,1.11,3.06,3.08,2.37,4.16-.42.67-.86.08-4.15-1.88-1.16-.69-1.17,1-1.77,2.35a2.75,2.75,0,0,1-5.22-.17c-.41-1.6-4.07-4.93-7.59-5.44-3.31-.48-1.41-.63-6.12-1.78-1.2-.3-2.33-.62-1.81-1.74S602.81,124.06,605.65,123.33Zm7.73,2.24c3.34,2.84,3.91,3.6,5.69,3.59,2.84,0-.5-1.8-2-2.77A5.71,5.71,0,0,0,613.38,125.57Z"/><path d="M1181.85,144.48c-2-.27.36-1.41-2-3.72-5.34-5.31-14.53-1.61-13.37-4.32,4.66-10.85,7.2-8.66,11.39-9.6,2.22-.49,2.21.42,7.08.81,3.07.25,4.47,5.48,4.64,6.5.46,2.7.86,3,1.84,2.89,6.89-1.1,11.11,3.8,5,2.6-2.69-.52-8.71-.67-9.27,2a2.16,2.16,0,0,1-.14.43C1185.9,144.68,1184.38,144.82,1181.85,144.48Zm-11.3-13.62c-4.86,7-2.79,4.37,5.84,4.75,3,.14,3.52,1.84,5.74,3.13,3.19,1.86,2.85.51,5.38.11,2.24-.35-1-6-2.3-7.79a4.17,4.17,0,0,0-2.63-1.34c-.78-.16-1.28.4-1.81.83-2.23,1.85-6.06.74-6-.16C1174.88,129,1172.19,128.48,1170.55,130.86Z"/><path d="M1165.29,113.89c4.18-.84,5.66-1.55,7.48.13,3.38,3.13,4.88,1,7.79.18a6.12,6.12,0,0,1,6.76,2.72.73.73,0,0,1-.89,1.06c-1.38-.64-2.82-2-5.29-2.17-3.58-.32-1.65,2.13-4.15,3.76-1,.62-3.82.69-4.12-1.35-.84-5.71-11.08-2.93-10.43-.22.07.32-.44.62-.63.47-1-.82-1.26-.57-5.66-1.72-2.53-.65.08-1.34-1.44-2.46-2.87-2.11-3.82.76-6-1.12-1.1-.92-2.87-.3-3.55-.88.75-.65,1.8,0,2.64-.67a2.22,2.22,0,0,0-1.92-.49c-2.69,0-2.23,1.86-3.91,1.41,2.18-5.39,7.94-2.44,9.89-3.92s1.5.48,3.22.71c2.31.3,3.25.15,4.56,1.76.62.77,1.58,2,3.07,1.55,4.83-1.57,9.84-.68,10.32-.3-6.9.74-7.25.54-7.68,1.56a1.72,1.72,0,0,0-1.47.59l.06-.15A1.68,1.68,0,0,0,1165.29,113.89Zm-11.2-2.31c1.53.73,1.53.73,2.65.52C1155.24,111.28,1155.24,111.28,1154.09,111.58Z"/><path d="M675,122.83c.43,1.14,1.65,1.4,2.41,2.41-2.07.19-2.85-2.55-5.71-1.58-.47.16-2.74.67-3.24-.26-.25-.48.11-.79.84-1.85-1.71-1.37-3.63-1.22-5.54-1.06-.54.05-3.32,4.74-6.78,1.26-2.72-2.73-6.75,2.91-12.27,6.3-.74.45-1.36-.08-.6-.68,15.59-12.58,5.51-4.86,22.15-11.53,3.48-1.4,3.31,1.58,9.19,1.91.31,0,.68.19.9.07,2.06-1,3.81.62,5.74.62.87,0,3.44,3.26,2.93,8.24-.13,1.2-1.49,1.19-2.09.47-.81-1-2-7-5.27-7-.72,0-.86.81-1.29,1.21S675.42,122.37,675,122.83Zm-11.06-4.58c1.22.16,2.45.3,3.68.45C666.48,117.81,665.31,117.26,663.93,118.25Z"/><path d="M1066.4,117c12.42-2.15,11.43-2.59,13.89-2.48-4.55-1.59-4.94-1.58-4.65-2.06.6-1,7.94,2,10.09,1.08.39-.16.68.23.92.55,2.28,3,6,2.78,6.44,2.17a1.33,1.33,0,0,1,2-.38c.45.27.87-.15,1.26-.37,2.68-1.47,5.7-1.84,8.58-2.65.19-.06.44-.19.64.23-4.13,2.23-8.65,2.75-10.39,4.67-1.12,1.23,1.17,1.56,1.22,2.44-2.06-.12-2.06-.12-4.36,1.48,4,10.25,1.87,10.59.66,7.16s-1.68-6.08-4.86-7.12c-2.82-.91-2.2,2.32-5.42,1.49a2,2,0,0,1-1.37-1.08c-2.44-4.45-6.26-.58-7.54-.56,3.16-3.76,4-3,6.29-3.14,1-.07,1.53-1.08.35-1.61-2.9-1.29-4.28-.62-10.39.62a8.83,8.83,0,0,1-3.36,0C1066.39,117.27,1066.39,117.12,1066.4,117Zm19.46,1a.69.69,0,0,0,0,1.14c.94,1,2.23.78,3.38,1S1088.48,116.35,1085.86,117.94Z"/><path d="M861.73,126.7c-.09-2.33-6.83-4.32-9.46-4.88s-3.73-.35-3.51-1c.1-.34.47-.37.77-.32,2.74.4,5.53.22,8.26.79,4.26.88,7.45,5.7,10.61,2.78,3.39-3.13,10.09-4.73,11-3.89-2.74.69-9.22,2-9.38,4.85-2.3,2.19-.69,4.93-7.69,4.6-1.59-.08-.14-1.81-1.69-1.66-4,.4-4,.43-4.56,1.5-1.81,3.38-4.71,3.24-8.52,2.84a.59.59,0,0,1-.44-1c.4-.53,1.18-.87,1-1.7-.38-1.87-5.45-5.11-7.19-5.89-.47-.21-5.5-2.55-5.07-3.12.27-.36,1.17.19,2.8.66,6.2,1.78,7.85,1.74,10.65,4.14,1.67,1.43,5.79,3.25,7.44,1.21a1.07,1.07,0,0,1,1.47-.22C859.34,127.09,860.47,126.77,861.73,126.7Z"/><path d="M876.26,81c-6.89-.72-8-1.57-10.34,1.06a5.83,5.83,0,0,1-4.84,2.23c-1.65-.07-1.81-.22-2.09-2-2.79,2-5,4.57-7.7,6.83,1.44.8,2.58,1.25,3.7-.06.39-.46,1-.11,1,.6-.21,3.09-.17-.8,13.24,5.77-6.83.36-6.43-1.26-11.41-.92-2.94.2-1.95,1.82-4.54,1.89s-.82-2.26-3.95-3.84c-4.38-2.2-4.56-.88-7.06-2.12.58-.67,1.12-.43,1.6-.34.79.15,4.32.65,4.35-.29,0-1.23-5.9-2.45-6.92-3.7.57-.7,6.25,1.16,7.12,1.53a1.7,1.7,0,0,0,2.23-.49C856.05,81,866.92,76,876.26,81Zm-26.18,9.68c-1.26-.58-.88.12-.21.33C850,91,850.13,90.91,850.08,90.66Z"/><path d="M334.13,52.33c-4.21.17-4.95-1.23-11-1.27-2.81,0-2.54,4-7.68,3-2.47-.49,1.32-2.44-1.73-4.28a15.44,15.44,0,0,0-6.35-2.6c-1.59-.16-3.12-.8-4.76-.82l-.06-.08.09.06c.41,2.09,2.26,3.27,2,4.43-2.15-1-4.05-7.15-10.07-8.77-2.49-.67-2,1.82-5.3,1.53-2.35-.21-.19-2.55-2.23-2.65-3.93-.19-4.78,1.18-9.74,5.35-.44-.42-.11-.66.08-.83,6.14-5.47,6.46-5.8,7.77-6.08,12.28-2.54,5.09-1.34,11.68,1.07,7,2.57-1.24,4.82,13.18,5.74,3.47.22,4.46,1.93,8.05,2.67,2,.43,2.26-.84,3.35-1.47.47-.28,1.22.18.93,1-.17.46-1.15.56-.66,1.23.28.39.87.1,1.32.1a24.15,24.15,0,0,1,11.09,2.7Z"/><path d="M477.33,97.61c3.81-1.44,6.69-2.09,5.19-3-.95-.59-2-.49-3.32-.49-.43.64.54.72.36,1.23-.58.26-1-.2-1.49-.35-2.89-.85-3.47-.18-3.23-1.28.12-.51-2-1-2.87-1.08-1.28,0-1.32.5-2.21,1.06-3.63,2.28-2.14-2.36-6.48-2.49s-7,1.5-11,.89c-.31,0-.5-.58.06-.79a23.38,23.38,0,0,0,7.74-1.08c2.82-.82,7.29-.31,9.19-.6s.76.83,4.1,1.8c2.92.84,3.15,2.1,4.71,1.52,1.86-.68,2.32-.24,7-1.16.66-.13.92-1.18,1.77-.83.68.28.36,1.19.81,1.57,3.27,2.68,5.76.69,6.91.68.94,0,1.65,1,2.71,1.12,6.41.4,10.64,4.08,15.1,4,.92,0,.79,1.83-3.36.37-7.68-2.7-9-3.37-12-2.29-1.27.46-.63.56-.63,2-.45.23-.85-.22-1.3-.15a2.86,2.86,0,0,1-3-1.27c-.71-1-1.9-.9-2.9-1.24-2.58-.87-3.45,2.39-5.55,1.07C482.72,96.14,478.79,98.64,477.33,97.61Z"/><path d="M202.29,70.12c.59-.28,8.33.68,12.3,3.22,2,1.27,2.47.55,3-.32s1.11-.67,1.32-.2-.22,2.52,3,1.33c4.24-1.56,8.2-1.37,10.23-1.54,1.65-.14,1.51-4.47-2.13-4.86-2.24-.24-4,1.15-5.49,1.53A.78.78,0,0,1,223.8,68c2.1-1.95,6.93-3.75,8.52-1.61,5.54,7.44,5.18-.81,10.32.87,4.1,1.35,7.75,5.66,5.3,5.51-1.18-.08-1.54-1.59-3.95-2.72a4.85,4.85,0,0,0-6.93,2.42,1.83,1.83,0,0,1-1.95,1.28c-.84-.09-13.57.67-14.9,4.44-.79,2.22-3.88.78-4.2-1.16-.39-2.37-10.7-5.49-12.84-6.22C202.82,70.65,202.42,70.57,202.29,70.12Z"/><path d="M116.12,56.73c.7-.6,1.58-.06,2.25-.51-1.12-4.32-8.53,1.47-12.71,3.38-.23-.55.07-.65.33-.81,6-3.76,8.06-5.49,11.38-5.87,1.84-.21,2.92-1.8,5.27.24,1.39,1.21,3.31,1.63,4.62,3,.18.19.57.19.86.27,5.48,1.49,4.71,1.46,7.91,1.3,1.15-.05,2.3-2,3.19-.48s.31-.18,9.2,2a27.46,27.46,0,0,0,5.87,1.07c-2.63,2.56-14-3.07-16.78,1-2.38,3.51-7.85,2.6-7.08,1s.38-1.83-.42-2.36C124.32,56.13,118.53,58.41,116.12,56.73Zm8.8-.58c-.79-.37-1.39-1-2.26-.37a.23.23,0,0,0-.07.2c.54.83,1.34.27,2,.37C124.65,56.36,124.71,56.29,124.92,56.15Z"/><path d="M571.69,104c-.08,1.72-.15,3.37-.25,5.56-1-2.12.15-2.07-1-6.89-.78-3.28-7.31,1-9.11,2.77-1.51,1.54-2.38.22-1.65-.28,3.64-2.48,5.78-5.45,8.27-5.76.47-.06.66-.45-.06-.91-1.26-.81-3.5,3.68-4.25-2.51-.53-4.47-10.83-.71-11.48-.6s-.94-.65-.16-.89c5-1.53,7.77-3.72,11.21-2.22,1.27.55,2.54,1.13,4,.47a.66.66,0,0,1,.89.52c.11,1.49.85,2.16,2.91,5.42,1.76,2.78,3,0,4.18,1.55.72,1,2,1.07,3.38,1.2,3.7.34,4.26,4.12,7,9.56.29.58-.58,1-.93.36s-3.69-11.42-9.89-6.75C572.9,106,573.11,105.72,571.69,104Z"/><path d="M258.21,57a2.36,2.36,0,0,1-1.38.8c-2.54.28-4.84,1.51-7.4,1.76-1.93.2-5.3,1.57-5.87,3.52-.65,2.21-4.3,1.41-4.33-.35,0-2.3-3.72-4.26-5.33-4.85-3.31-1.21-.81,4.06-6.54,3.91-.83,0-3.41.53-2.8-.8,1.17-2.54-4.46-3.88-6.59-3.84-5.88.09-6,0-6.44-.48,3.48-.43,6.79-1,10.17-1.13,1.82-.06,8,2.48,8.7.92-.54-.81-1.73-.87-2.33-2,2.51.12,3.6,1.73,7.86,1.46,2.8-.17,9.53.89,9.9,1.42-.56,1.07-1.36.2-2,.19-2.07,0-4.13-.14-6.54,0,1.44,1.3,3.94,3,4.85,1.29.35-.68.94-.46,1.24.12a1.19,1.19,0,0,0,1.75.53C248.24,58.06,251,58,258.23,57Z"/><path d="M439.64,71.32c-.82-3.82,2.2.56,4-1.13,3.37-3.1,12.18-5.94,10.2-4.31s-6.44,2.48-9.18,5.54c.1.68.68.84,1.12,1.08,4,2.22,4.25,8,6.54,5.24,1-1.2,1.34-1.12,2.11.53l-.1.06.08-.08a18.36,18.36,0,0,1,10.84-1.12.54.54,0,0,1,0,1c-2.57.29-4.58-.16-8.69.91-3.07.79-3,2.41-3.46,3-1.1,1.43-3.24,1.76-4.1-.62-.51-1.39.81-2.73-3.28-6.58a6.25,6.25,0,0,0-2.57-1.75c-.95.62-.08,2.63-2.36,2.78-2.72.17-.63-2.1-4.75-4.79-7.44-4.83-7.12-3.71-9-4.62-.84-.4-.34-1,.2-.91.91.17,3.4,1.19,7,2.4,2.48.84,3.72,3.4,5.43,3.3.13.08.2.45.43.1Z"/><path d="M478.8,106.22c-2.71.73-6.86-1.26-12.26-1.16-3.24.06-2.49,1-3.62,1.92s-2.74.72-3.24-.68c-1-2.91-5.87-2-9.19-2-.57,1.19.92,2.43-.17,2.83-.64.24-.89-.75-1.07-1.25-.88-2.45-2.84-.55-4.55-1.59-.07-1.27,3.92.16,3.54-1.48-.8-3.43-3.33-6.3-6.29-4.33-2.1,1.39-3.67.77-4-.26-.41-1.33-3.56-1.58-5.59.47-1.87,1.89-4,5.27-4.7,5.27-.45-.47,4.73-8.2,7.27-8.69,5-1,6.16-1.32,8.11-.23,2.29,1.3,3.83.73,4.56,2.64,2,5.26,2,5.67,3.33,5.53,9.23-1,8.17.83,11.1-.74.89-.47,1.4,1.32,2.55,1.1,2.6-.49,8.08,1.31,9.71,1.77A18.4,18.4,0,0,0,478.8,106.22Z"/><path d="M416.84,94.54c9.53-4.51,6.5-2.93,8.7-4.84.16-.15.63.18.53.49-.46,1.43-5.84,3.53-10.68,7.09-2.74,2-1.13,3.72-3.58,3.75-3.12,0-.6-2.21-4.87-4.61-6-3.36-5.93-2.57-6.63-3.6.22-.09.38-.23.49-.2,6.83,1.7,6.3,2.3,8.59,3.72.31.19,1.65,1,1.89.69,1-1.14,4.07.17,3.63-1.66s-2.15-5.44-5.08-5.49c-1.95,0-1.33,2.42-4.17,2.39s-.62-1.82-3.22-2.9c-3.42-1.44-4.62.53-7.21,3-.88.84-1.35,1.33-1.88.86-1-.86,4.24-5.23,6-6.18,1.35-.73,2-.35,4.64.51s3.16-1.21,4.46.45c.3.37.89.12,1.33,0,2.61-.72,4.24.49,5.51,2.63A25.24,25.24,0,0,1,416.84,94.54Z"/><path d="M1108.11,82.42a15,15,0,0,1,3.41-6.24,4,4,0,0,0,1.43-2.54c.11-2.1,8.78-5.09,10-4.89,3.29.54,4.83-1.42,5,1.08,0,.35,0,.6.37.69,3.39.91,6.42,8.16,5.48,8.79-1.45,1-1.69-2.62-7.79-6.66-1-.67-1-.69-2,.06-4.73,3.82-6.87.1-9.14,3.29C1113.39,78.08,1110.89,81.11,1108.11,82.42Z"/><path d="M818.66,93.65a17.87,17.87,0,0,1-4.06-2.07c-4.29-3.31-4.66.29-7.5.54-3.5.31.1-5.82-9.4-.58-1.91,1.06,1.28,5.4.41,8a47.51,47.51,0,0,1-2.19-4.41c-.41-.91-.65-2-1.89-2.1-.56-.07-.63-3-3.94-1.63a1.75,1.75,0,0,1-2.54-1.65c-.24-3.72-8.46-1.68-9.44-1.65,8.31-4.92,9.09-.57,13.68-1.9.44-.13.88.16.83.55-.17,1.39.78,2.08,1.61,2.87,1.14,1.08,1.67,1.8,3.16,1.1,5-2.37,4.64-2.62,6.54-2.81,5.19-.5,6.13-1.44,6.41-.49s1.3,1.2,2.15,1.51A11.46,11.46,0,0,1,818.66,93.65Z"/><path d="M424.59,46.17c2.06-.55,3.08.7,5.72,2.45,3.39,2.24,4.27-.07,8.93-.77,2.51-.38,6.68,3.39,4.81,4.93-.9.74-1.49-.11-3.21-1.17-2.06-1.28-4.45-2-5.56.15-1.47,2.87-2.67,3.61-7.3,2.94-.59-.08-.86-.49,0-1.58,1-1.37-2.29-5.67-7.28-4.7-7.9,1.54-6.05-.47-5.15-.78A31.39,31.39,0,0,1,424.59,46.17Z"/><path d="M464.22,24.79c2.38-2.33,5.85-5.43,9.14-5.95,5.37-.85,6.09-1,6.85,0,1.21,1.63,3.53.54,6.15,4.6.46.71.94,1.39,1.5,2.22,5.31-3.3,6.66-4.49,9.43-4.58,3.63-.12,4.86-1.44,6.8.19,1.37,1.15,4.26,0,9,5.35-2.49,0-6.79-5.78-9.78-2.24C499.2,29.24,500.2,19,492.5,24c-4.37,2.86-4.76,3.51-6.67,4-.2-1.57,2.13-.85,0-3.11-5.45-5.87-5.52-2-8.17-2-2.32,0-1.58-2.25-3.38-2.34C468.16,20.18,467.39,24.69,464.22,24.79Z"/><path d="M1184.25,66.21c.51,0,2.39-.61,2.65.6a.63.63,0,0,1-.38.76,11.77,11.77,0,0,0-3.84,2.87c-2.89,2.68-8.85,1.2-7.84,0,1.54-1.79-1.78-5.73-7.28-4.36-3.24.81-3.92,1.3-4.69,1-1.78-.74,2.15-1.55,6.37-2.68,10.28-2.75,6.82,4.31,13.16.7,5-2.86,9.09-1.79,8.32.19-1,2.59-5.22-1.81-6.44.95l-.11.08Z"/><path d="M833.47,125.63c-8.7,1.66-11.14,1.21-11.74,3.52s-3.7,2.78-4.32.78c-.69-2.21-4-2.28-5.28-2.06,9.48,6.42,8.4,7.95,11.08,7a.55.55,0,0,1,.44,0c.92.76,1.73.22,2.55-.18,3.31-1.64,6.92-1.89,10.52-2.3-1.52,1.86-11.21,1.73-12.6,5.55a2,2,0,0,1-3.52.56c-1.22-1.64.22-2.06-3.24-5.18-1.79-1.61-5.25-4.13-5.25-4.13-1.93-2.36-4.57-1.95-8.39-1.95-.07-.69.38-.71.7-.73,13-.81,13.91,1.35,15.63-1.21.93-1.37.3,1.8,3.05.83C826.41,125,829.77,125.38,833.47,125.63Z"/><path d="M348.91,59.36c2.88-3.83,4.75-3.47,8.25-5.54,3-1.74,5.14-1.83,12-2.68,2-.25.31,1.79,2.19,2.32,6,1.67,7.54,7.2,10.29,9.49.61.51-.41,2.12-1.37.81-2.21-3-8.51-7.44-9.49-8-3.11-1.67-2.36,1.52-6.08,1.32-2.25-.12-3.61.28-2.78-1.33.25-.47.76-.93-.13-1.27C358.07,53,357.19,56.69,348.91,59.36Z"/><path d="M1094.83,92.22c-5.73.82-7.67,3.93-8.76,2.66-.45-.53,6.8-4,10.78-4.63,1.9-.31,3.24,1.91,6.6,2.51,3.14.55,10.51-4.54,12.3,5.24a1,1,0,0,1-1.73.91c-.47-.41-5.87-7.8-7.39-3.81-1.16,3-4.7,3.23-7.79,3.08a.57.57,0,0,1-.42-.86c.31-.52,1-.86.91-1.55s-.81-1.28-1.28-1.88A4.78,4.78,0,0,0,1094.83,92.22Z"/><path d="M976.62,128.58c-2.37,1-2.89,1.18-3.15.71-.13-.22,0-.71.67-1,7.53-3.54,10.09-4.21,12-2.32,1.31,1.32,4.59,2.77,5.8,1.66,1-.93.38.29,4.69-.15,1.24-.13,4.34,1.82,5.69,6.08a1,1,0,0,1-1.77,1c-2.26-2.38-3.7-4.44-6.45-5-1.38-.28-1.28.25-2,1.35-2.2,3.35-7.36,2-6.46.6.74-1.12.11-1.88-.62-2.61C983.51,127.36,981.6,126.47,976.62,128.58Z"/><path d="M757.62,108c-1.37,3-3.78,3.47-7,2.24-2.34-.92,1-1.64-.63-3.58-2.56-3-4.4-4.84-10.28-6.68-3.26-1-1.55-2.48-.65-2,3.69,1.88,9.5,1.71,12.13,5.11,2.5,3.23,5.13,3.29,5.58,2.78.76-.85,1.75-.8,2.76-.83,1.75-.06,1.93-1.19,8.41.4.77.19.68,1.07-.5,1.09C766.68,106.57,759,104.88,757.62,108Z"/><path d="M654.33,84.71c-.21-.64-1.36-1.06-.94-1.67.56-.84,1.34.15,2,.26,10.31,1.69,11.06,4.52,12.76,6.08,4.2,3.86,3.78-2,15.26-1.46,1.25.06,1.94,1.46-.51,1.42-7.87-.1-8.74,1.53-9.89,3.62a5.2,5.2,0,0,1-5.84,2.61c-2.8-.83.21-1.5-.91-3.62a9.88,9.88,0,0,0-4.19-4.18,16.07,16.07,0,0,0-4-1.66l0,0a3.83,3.83,0,0,0-2.36-1l0,0a2.63,2.63,0,0,0-1.34-.43Z"/><path d="M1063.89,106.64c-4-.86-4.12-.65-3.21-2,.36-.53.46-1,0-1.45-1.91-2-3.71-4.08-6.27-5.36-9.33-4.66-6.6-5-5.49-4.46,3.31,1.69,9.21,2.64,13.15,6.47a6.58,6.58,0,0,0,4.88,1.63c11.39-2.89,17.76-1.61,6-.13C1065.84,102.28,1069.4,106.3,1063.89,106.64Z"/><path d="M333.57,37.41a3.45,3.45,0,0,1-3.87,1.8c-2-.57-.57-1.66-2-3.55-4.68-6.1-12.2,2.45-12.21-.17,0-.93.91-.92,1.46-1.25C327,28.19,325.66,33,331.3,34c1.64.3,2.35-1.28,3.5.41.22.33,1.84.27,2.23.22,4.18-.53,5.88,3.82,7.27,7.15.38.93-.73,1.67-1.47.71-1.22-1.59-1.12-2.5-3.95-5.08C337.58,36.25,334.54,35.56,333.57,37.41Z"/><path d="M464.41,58.84c2.91.94,8.6-.22,13.89,4.54,2.09,1.88,4.46,1.6,5.41.61,4.46-4.64,12-5.82,12-4.49,0,1-1,.2-7.6,2.72-5.36,2-2.76,8.66-8.14,7.49-1.83-.39-2-.21-1.68-1.62.56-2.7-6.36-6.51-13.63-7.38C462.69,60.48,462.6,58.84,464.41,58.84Z"/><path d="M910.29,78.7c2.24,1.63.51,1.43-1.07,3.7s-3.27,2.27-6.13,2.18a1,1,0,0,1-1-1.22c.22-1.72.22-1.76-1.2-2.53-9.09-4.92-10.74-2.74-13.17-3.6.48-1.63,9.7-.58,11.23-.33,1.8.3,3.3,1.44,4.82,2.18,3.36,1.66,2.69-.85,11-5.1a2.07,2.07,0,0,1,2-.26c-3.37,2.81-5,2.56-6.41,5Z"/><path d="M691.51,106.4c.19-.61-.26-.59,11.21-2.16,2.79-.37,4.18.83,6.85.75s2.59-1.36,3.43-.44-1.21,1.59.42,2.25a15.11,15.11,0,0,1,6.27,3.76c4.4,4.26,5,4.72,4.62,5.16s-.85,0-1.21-.3a59.12,59.12,0,0,0-9.37-6.26c-3.32-1.59-2.12,1.93-6.9.86-2.14-.48.74-2.44-1.92-3.6C700.11,104.31,696.45,107.06,691.51,106.4Z"/><path d="M823.75,83.33c3.06,1.72-.23,1.32-1.16,3.51-1.3,3.06-3.75,2.75-6.71,2.49-2.1-.18-.21-1.4-1.22-2.35-4.22-4-7.09-1.22-9-1.33l0,0c1.9-1.57,4.28-2,6.53-2.76.52-.18,1-.17,4.37,1.26,3.92,1.66,4-1.26,9-2.88A6.64,6.64,0,0,1,832,82.73a.92.92,0,0,1-.77,1.46c-.62-.13-5.5-2.54-7.58-.78Z"/><path d="M75.37,66.51C74.61,64.81,86,60.64,87,60.6c7.61-.33,8.21-1.56,8.73-.39.9,2,2.87.15,6.65,3.24,4.8,3.92,4.75,3.87,4.5,4.42a2.94,2.94,0,0,1-1.8-.78,29.28,29.28,0,0,0-7.92-3.72,3.37,3.37,0,0,0-3.8.68c-2.35,2.22-5.72.9-5.95.43s.45-.7.63-1.08a.59.59,0,0,0-.34-.92C84.3,61.1,82.91,64.36,75.37,66.51Z"/><path d="M703.67,64.44c3.18-7.42,5.15-12.57,14.06-14,2.12-.35.64,1.51,2.83,2.15,3.8,1.1,4.66,4.06,7.77,10.88.21.47-.61,1.51-1.7-1.33-1.18-3.11-6.79-9.78-9.1-6.86a3.12,3.12,0,0,1-3.36,1c-1.06-.22-1.1-.17-1.2-1.4-.07-.9-2.3-2.31-6,5.5A13.83,13.83,0,0,1,703.67,64.44Z"/><path d="M67.52,52.82c-2.86,0-4.41-.24-6.66,1.27-3.81,2.56-1.44,5-4.19,5.28-4.16.37-.52-5-9.45-6.39-2.77-.42-4.2.7-6.89.28-.62-.1-1.06-1.25-.06-1.43,3.52-.61,8.18-1.91,11.75,1,1.3,1.06,2.49,2.19,4.07,1.7s1.67.49,2.95-.81c4.15-4.2,12-2.74,12.58-2.41s.64,1.57-1.33,1.57H67.52Z"/><path d="M520.13,50.46c2.08-5,7.39-8.94,15.45-9.38,1.68-.1.24.78,3.32,1.29s5.66,4.12,7.34,6.63c.45.67-.19,1.23-.88.63-13.18-11.49-7.87-2.08-15.26-3.29-1.81-.29-1.05-.81-.91-1.38.22-.92-1.44-1.32-2.86.08-5.23,5.19-5.2,5.35-6.13,5.48Z"/><path d="M805.2,62.73c-.93,1.78-1.14-.93-3.4-4.53-1.57-2.51-4.87-2.76-6.09-1.25a4.47,4.47,0,0,1-2.38,1.33c-1,.3-1.27.14-1.71-.94-3.63-8.93-13.15,3.8-11.93.55.28-.73,3.28-3.8,6.3-5.26s3.5.55,7.3.71a2.91,2.91,0,0,0,1.79-.17.66.66,0,0,1,1,.28c.48.88,2.29.7,2.75.62,2-.3,3.13.65,4.11,2.26A20,20,0,0,1,805.2,62.73Z"/><path d="M715.63,132c2.9.65,7.7-.35,11.42,3,4.21,3.81,4.14.9,4.89,1.19,1.36.53,1.87-.58,2.63-1.28,3.64-3.32,8.9-4.17,10.54-3.84.47.09.63,1.11-1.23,1.43-11.33,2-10.37,6.65-11.12,8-1.24,2.22-3.35.77-4.24-.86-2.33-4.29-6.61-5.69-11.77-5.88-2.83-.09-2.45-1.79-1.25-1.77Z"/><path d="M48.56,32c-7-1.75-6.43-1.75-9.25-1.89-3.19-.17-4.41,4.29-7.66.39-3-3.65-11,1.76-18,2.6-.57.07-.72-.63-.12-.83,18.78-6.46,12.29-3.53,21.4-5.28,2.59-.5,1,.95,4.2,1.19a22.58,22.58,0,0,1,8.69,2.94,4.06,4.06,0,0,1,.83.78Z"/><path d="M106.19,34.64c-1.6,3.24-4.64,3.26-5.16.83-1.28-6.06-6.86-7.14-10.24-8.41-1.78-.66-2-.91-1.84-1.38s.72-.45,1.43-.27c4.59,1.12,7.94,1.89,10.12,4.9.34.47,1.77,2.13,2.71,2,4.36-.64,1.76.78,4.12-.14,2.06-.8,3.79-1.78,6-1.37,1.41.26,5.45-.05,5.24,1.24C118.29,33.63,108.16,30.65,106.19,34.64Z"/><path d="M722.08,84.49a7.93,7.93,0,0,1,1.7-3.23c3.17-4.39,2.32-3.8,7-5,8.24-2.06,2.1,0,8.13.76A4,4,0,0,1,742,79.23c.28.46,4.46,7.11,3.47,7.7-.59.35-1-.18-1.87-1.66-6.69-11.06-8.36-4.4-11.27-4.56s-.71-1.75-3-1.84c-1.59-.07-3.63.45-5.72,4A3,3,0,0,1,722.08,84.49Z"/><path d="M614.68,20.5c5.06,1.29,5.48,1.38,10,2.6,3.64,1,7.11,4.49,8.81,2.54,1.19-1.36.82,1.42,2.15,1,4.78-1.36,13.26.1,13.72.57-6,.36-13.77-.52-14.86,2.06-1.27,3-5.34,2.17-5.13.6C630.05,24.75,616.1,22.53,614.68,20.5Z"/><path d="M891.07,155.72c2.29-2.5,3.81-4.68,7.56-4.51,2.55.12,5.46-.94,5.88-.37,1.45,1.92,4.47.13,7.23,4,5.38,7.5,3.56,9.32,2.36,6.64s-3.88-6.05-6.81-7.25c-3.81-1.57-3,2.71-6.91,1.47-2-.61.12-1.93-2-2.25a5.76,5.76,0,0,0-4.8,1.1A3.45,3.45,0,0,1,891.07,155.72Z"/><path d="M870.69,154.45c1.58-.42.69.66,2.64.06,1.28-.39,3.56-2.17,6.76.84,2.74,2.57,3.49,5.6.26,3-2.78-2.24-3.73-3.32-6-2.86s-1.76,1.24-2.34,2.2c-1.14,1.85-3.43,1.91-4.26-.34a5.14,5.14,0,0,0-6.11-3.6L855.32,155c-.91.05-1.26-.92-.44-1.29C867,148.29,865.89,155.74,870.69,154.45Z"/><path d="M713.54,130.75c-.51.83-1.13,0-1.47-1-1.37-3.86-5.37-10.31-8.19-7.17-.47.53-2.06,1.53-2.9-.48-1.09-2.6-4.68-1.9-6.12-.81a44.59,44.59,0,0,0-5.31,4.42c-.74.59-1-.18-.67-.57a59.9,59.9,0,0,1,4.94-4.82c3.18-3.46,7.27-1.42,10.09-3.1a.6.6,0,0,1,.91.41c.16,1.27,1.1,1.82,2.07,2.26,2.92,1.3,3.45,3.38,6.4,10A7.71,7.71,0,0,1,713.54,130.75Z"/><path d="M238.35,96.47c0,.65-.81,1.3-1.78,0-1.36-1.77-3-4.65-6.13-4.76-2.7-.1-2.1,1-3.2,2a2.19,2.19,0,0,1-3.84-1.44c.32-2.82-3.45-4-6.08-3.07-2.87,1-3.59,1.76-4.54,1.54-.54-.13-.57-.72-.35-.86,2.16-1.33,7.18-4.25,9.35-2.58,2.34,1.79,3.19,3,4.7,1.93,1.22-.83.66,1.7,2.56,1.1C233.85,88.86,237.4,93.12,238.35,96.47Z"/><path d="M34.86,125.6c-4-3-9.86-5.29-11.93-.71-.79,1.75-4,1.68-4.1-1.41-.19-5-7.81-5-11-4-1.8.51-2.6-.7-1.23-1.12,3.71-1.15,8-1.59,11,1,.73.61,2,2.22,3.31,1.62a.7.7,0,0,1,.86.06c.86,1,1.81.56,2.77.27,3.83-1.13,5.52-1.68,11.92,3.79C37.24,125.77,36.67,127,34.86,125.6Z"/><path d="M99.4,13.68a4,4,0,0,1,2-.2,48,48,0,0,0,9.19-.78c3.34-.7,5.83,1.3,9.07-.57.29-.16.62-.28.87-.09,1.47,1.11,3-.38,6.1.15,2.77.46,5.54.19,8.31.27,1.88.06,2.84-1.37,3.17-.48.54,1.49-9.81,1.47-11.07,1.25-1.43-.25-5.4.17-5.61,1.65-.46,3.24-6.16,3.58-5.85,1.51.13-.86-.41-1.24-1.07-1.58C111,13,108.92,14.47,102,14.46A3.42,3.42,0,0,1,99.4,13.68Z"/><path d="M923.78,132.62c-3.73.8-1,3.62-4.44,4.69-3,.92-1.92-2.48-2.59-4-1.49-3.26-5.2-4.29-8.6-4.16-2,.07-2.19-.07-2.23-.55,0-.32,0-.7.34-.77,3-.56,7-.88,9.16,1.43,2.35,2.46,3.51,4.26,5,2.89.1-.09.31-.23.39-.19,1.3.6,2.18-.36,3.15-.88,2.77-1.49,5.8-.46,8.45,1.28a.65.65,0,0,1-.51,1.18,17,17,0,0,1-1.76-.52A10.87,10.87,0,0,0,923.78,132.62Z"/><path d="M354.79,79.56c-1,1.51-3.46,1.87-4-.15-.68-2.77-3.85-3-5.51-1.91-2.41,1.61-4.45,3.26-4.45,3.26-.64.34-2.89-.44,4.09-5,1.89-1.23,3.34-.37,6.19.41.94.26,1.77-.25,2.65-.4s1.07,1.22,2.14,1,3.65-.37,5,1.05,4.44,6.54,3.26,7.17c-1,.51-1.17-1.49-4-5.31C358.73,77.77,355.67,78.18,354.79,79.56Z"/><path d="M423.27,62.36c.76-.55,1.26.07,1.84.14,14.36,1.76,14.36,2.68,16.32,1.25.16-.11.52-.18.63-.08.9.76,1.71.2,2.57-.08,4.85-1.61,8.9-1.64,12.91-4.15a.56.56,0,1,1,.55,1c-5,3-14.23,3-15.58,7-.56,1.67-3.47,1.82-3.91.43-.81-2.55-6.24-3-12.46-4.37A5.19,5.19,0,0,1,423.27,62.36Z"/><path d="M59.22,47.7c1.59-3.93,4.35-3.83,7.32-4.79,3.62-1.16,3.16.46,6.79,1.17,2.18.42,3,1.38,6.79,9.66.38.84-.81,1.57-2.28-2-1.06-2.6-5.68-7.43-7.94-5.13-1.37,1.41-4,1.78-4.56.2-.42-1.08-1.17-1.18-2.23-1a9.33,9.33,0,0,0-3.85,2Z"/><path d="M775.75,74.13c-.64,0-.79-.64-1.12-1-5.31-6.45-8.45-3.9-8.94-3.79-3.14.72-1.69-2.22-4.34-2.46-5.44-.49-6.32,4.19-11.73,6,1.5-2,2-2.28,8-6.4,2-1.34,2.78-1.24,8.19-2.07,2-.31,2-1,2.59-.4s-.65,1.37.57,2.25c2.49,1.81,4.35,2.05,6.8,7.27C776,74,775.85,74,775.75,74.13Z"/><path d="M621.38,73.13a.61.61,0,0,1-1.07.09c-.19-.4-.65-3.45-.91-4.48-.68-2.74-3.48-3.46-4.68-2.3-.9.88-3,2-3.89-.25-.47-1.16-1.47-1.5-2.42-2-1.14-.55-4,3.82-6.16,5.54-.28.23-.84-.34-.76-.57.52-1.62,3.14-4,5.09-5.84,2.41-2.23,6.09.9,7.9-.6.34-.28.88-.3,1,.11.53,2.24,3.49.27,4.76,2.86A15.24,15.24,0,0,1,621.38,73.13Z"/><path d="M459.29,37.14c.8-.37,1.58.55,2.45,0,5.22-3.19,9.73,3.45,8.64,4.24s-1.41-1.09-4.72-2.86c-3.56-1.91-4.48,1.44-5,2.21a2.09,2.09,0,0,1-3.62-.09c-.29-.46-1.21-4.14-4.67-2.71-2.48,1-5.05,3.91-5.52,2.56-.33-.94,2.28-3.15,5.24-4.39C455.22,34.81,456.66,38.37,459.29,37.14Z"/><path d="M35.63,73.22c2.19.57,7.27,0,10.93,2.17,2.15,1.28,2-.91,3.37-.18a2.58,2.58,0,0,0,2.81-.4c3.41-2.37,7.43-2.79,11.33-3.61,1.08-.22,1.42.56.19,1-7.69,2.51-10.39,2.86-11.76,6-.85,2-3.78,3.07-4.72.51-1.12-3-3.86-3-12.16-4.55-.37-.07-.9-.06-.93-.44S35.2,73.28,35.63,73.22Z"/><path d="M394.3,112.49c-.42.61-.3,1.33-.46,2a2,2,0,0,1-3.41,1c-2.18-2,.95-4.5-10.93-6.6-4.16-.74-2.71-2.63,5.71-.42,1.79.46,3,1.79,4.52,2.74,2.14,1.32,2-1.23,3.54-.08.47.36,1.11-.33,1.67-.93,5.1-5.5,17.61-5.36,6.3-2a15.91,15.91,0,0,0-7,4.34Z"/><path d="M444.51,39c-.17.08-.35.23-.42.19-.83-.51-4-5.33-7.77-6.62-3.07-1.05-1.51,1.5-4.43,1.86-2.73.34-2.68-3.42-5.08-.92-2.84,3-4.2,5.51-6.31,7A.38.38,0,0,1,420,40c3.75-4.45,4.92-8.13,9-9.21,2.78-.73,4.43-2.08,5-1.3,1.26,1.86,3.79.58,6.3,3.91,1.29,1.72,2.69,3.35,4,5A1.91,1.91,0,0,1,444.51,39Z"/><path d="M768,155.14c-1.44.24-4-1.87-6.86-2.5-4.11-.9-3.12,2.39-6.16,1.3-2-.72-.7-2.23-3.08-2.38-6.64-.42-6.62,2.49-12.48,2.72-1.83.08-1-.92-.45-.95,4.95-.31,9.47-3.77,12.8-3.61,5.46.25,5.65-2,6.74.12.35.7,1.29.79,2,.91,2.86.45,5.1,2.06,7.23,3.86C767.85,154.7,767.86,154.88,768,155.14Z"/><path d="M964.69,89.71A28.36,28.36,0,0,1,959,90c-7.37-1-4.8,5.16-10.46,3-1.77-.67,3.52-3.49-12.56-2.59-.1-.59.39-.56.68-.61,8.08-1.47,7.34-1.35,9.81-1.12,1.45.13,5.51.43,6.48-.65a.74.74,0,0,1,1.21,0c.54.84,1.25.7,2,.59A16.82,16.82,0,0,1,964.69,89.71Z"/><path d="M600.18,98.25c-5.38-1.12-8.39-3-10.12-.66-.35.47-2.18,1.85-2.94-.11-1.59-4.08-7.91-4-12.14-3.94-5.76,0-5-1.32-4.19-1.22a51.87,51.87,0,0,0,9.89.07c3.05-.15,5.63,1.37,8.19.39a.77.77,0,0,1,1,.27c1.5,2.3,4.94,1.25,9.41,4.5C599.6,97.77,599.89,98,600.18,98.25Z"/><path d="M442.6,146.28c-1.33.48-5.27-7.26-8.68-4.78-3.11,2.28-3.37-1.79-5.49-2-3.65-.42-3.2.09-8.86,2.68-3.21,1.47-3.66,1.48-3.7,1s.45-.53.8-.7c7.86-3.84,9.05-4.77,12.57-5,3.11-.19,3.79-1.64,4.53-.37a8.89,8.89,0,0,0,3.31,2.8C439.72,141.51,442.75,145.5,442.6,146.28Z"/><path d="M118.47,74.21c1.58-.51,8.84.39,10.76,1.13,2.34.9,2.34-1.56,3.57-.39,1,1,2.14.09,3.33-.62,3.62-2.14,10-3.64,10.65-3.44.07,1.57-11.48,3.92-12.12,7.85a1.56,1.56,0,0,1-2.34,1.05c-2.2-1.05-.7-2-3.38-3C125.14,75.47,119.51,75.62,118.47,74.21Z"/><path d="M478.45,133.51c-.2,2.09-12.33.46-14.46,5-.61,1.31-2.6,1.29-3.54.16-1.14-1.36.44-3-4.58-5.66-2.38-1.24-4.54-2.89-7.06-3.87a.53.53,0,0,1-.37-.52c.17-.25.41-.18.62-.1,6.94,2.79,8.75,3.35,10.44,5.21.68.76,2.26,1.44,2.78.62,1.18-1.86,1.06,1.29,3.43.58C471.56,133.19,475.43,134.21,478.45,133.51Z"/><path d="M536.94,63.72c-1.7,2-11.76,3.58-12,8.08-.18,3.08-3.78,2.42-4.18.41-.29-1.45-2.49-3.95-5.44-4.91-2.51-.83-10-3-7.43-3.48.82-.15,1.11.23,5.83,1.28,4.06.9,5.39,3.09,7.37,4.11,2.2,1.12,2.11-1.24,3.58-.19.42.3,1.25-.61,1.86-1.18C529.61,65,535.08,63.76,536.94,63.72Z"/><path d="M564.28,29.65c6.17,1.2,8.38,1.35,11.32,3.4.66.46,3.19,1.83,4,0,.3-.7,1.22-.47,1.2.33-.07,2.92.09-.26,10.45,2.85-3.82,1.31-8.56-1.7-11.07,1.48C579,39.16,577,38.8,576,38.07c-.35-.25-.1-.72-.14-1.09-.42-3.85-10.77-6.54-11.59-6.9Z"/><path d="M135.68,92.76c1.63,1.13,2.35,1.83,3,1.55,2.52-1.09,1.75.42,2.8.36.9,0,3.93-2.32,8,3.07,2.12,2.76.71,3.45-.73,1.5-.84-1.13-3.34-3.58-6-3.34-2.14.19-.87,1.19-2.78,2.41-1.27.81-3.46.24-3.29-1.69a2.14,2.14,0,0,0-1.3-2.2c-2.6-1.59-4.28-.42-6.76.5-1.36.51-2,.74-2.32.14C125.83,94.11,132.5,90.56,135.68,92.76Z"/><path d="M318.38,66.68c-.81,1-5.12,2.34-5.87,2.55A18.83,18.83,0,0,0,307.23,72,3.23,3.23,0,0,0,306.09,74a2.25,2.25,0,0,1-4.24.27c-1.39-3.73-4.8-4.48-12.91-7.56-.28-.11-.58-.23-.63-.6.3-.57.43-.24,6.82,1.27,7.47,1.77,3.11,3.7,11,3.69.47,0,1-.46,1.4-.75A25.85,25.85,0,0,1,318.4,66.7Z"/><path d="M358.64,17.41c-1.27,3-4.41-10-10.66-4.18-1.42,1.31-3.37.85-3.71-1.05-.69-3.78-4.5-3.48-8.11-.92C333,13.48,333,10.1,339.35,7.79a3.12,3.12,0,0,1,3.46.4c1.57,1.51,3.65,1.49,5.5,2.1,2.37.78,4.85-3.12,10.22,6.55A1.59,1.59,0,0,1,358.64,17.41Z"/><path d="M365.12,21.78c.33-.94,5.32-3.92,7.5-5.23,3-1.82,6.18-.84,7.75-2.54a.51.51,0,0,1,.8.06A8,8,0,0,0,385,16.46C390.4,18.3,392.6,24,388,19.81c-1.6-1.44-4.44-2.5-6-.81-.63.69-3,1.45-3.74-.3-.94-2.32-4.74-1.6-6.24-.55s-3,1.85-4.54,2.74a4.14,4.14,0,0,1-2.31.93Z"/><path d="M117.09,80.57a2.64,2.64,0,0,1-1.87-.81A8,8,0,0,0,111,78c-2.68-.55-3,4.79-6.72.66-2.9-3.2-12.11,4-12.58,3.85a.42.42,0,0,1,.13-.59c5.52-4.61,7.4-5.64,10.44-6,5.48-.72-.22-2,8.59.5a12.41,12.41,0,0,1,6.21,4.15Z"/><path d="M320,113.63c-7.57.69-13.76-2.92-15.53.51-.64,1.24-3.41,2.57-3.83.68-.75-3.43-5.32-2.29-11.26-1.51-1.63.21-4.82.78-4.84.09s.9-.31,4.34-.9c5.22-.89,6.71-1.61,9.78-1.45,1.36.07,2.76.28,4-.69.34-.27.71,0,1,.29,1.49,1.47,1-.1,9.62,1.86C315.47,113,317.66,113.79,320,113.63Z"/><path d="M674.28,38.44c-16.91-5.25-11.38-2.67-15-1.26a2.15,2.15,0,0,1-3.14-1.62c-.4-3.82-7.38-3-10.6-4.19,7.13-1.8,10.13,1.65,14.46,1.25a.84.84,0,0,1,.81.32c.56.81,1.43.82,2.26.93a24.53,24.53,0,0,1,11.17,4.59Z"/><path d="M100.49,105.79c-1,1.25-.95-1.13-2.16-3.9-1.06-2.41-3.6-3.55-5.58-2.07-3.4,2.54-2.87-1.94-5.18-2.54-2.1-.54-2.89-.81-6.29,2.31-4.44,4.07-1-2.55,3.91-4.5,1.12-.45,3.72.64,4.19.86,1,.48,2.11-.44,2.89.06C97.35,99.29,98.19,94.7,100.49,105.79Z"/><path d="M514.05,128c6.87-6.38,7.73-7.59,10.56-8.32,2.4-.62,4-2.16,5.9-1.27a1.69,1.69,0,0,0,.92,0,8.25,8.25,0,0,1,5.71,1.39c4.77,2.77,5.23,3,4.76,3.47s-1.29-.25-1.64-.5c-1.84-1.33-4-1.81-6.09-2.7a4.73,4.73,0,0,0-2.74,0c-1,.18-1,1.05-1.44,1.67-2.13,3.26-4.26-.56-5.76-.31C519.81,122.19,517.25,128.06,514.05,128Z"/><path d="M83.06,11.19c-1.52,1.14-3.84,1.62-5.81,2.63-5,2.55-2.74,6.35-6,6-3-.35-1.46-2.15-3.47-3.85a32.82,32.82,0,0,0-9.26-5.53C57.92,10.23,56.23,9.66,56,9c.7-.7,1.25,0,1.82.22C65.12,11.63,66,12,68.27,13.85c4.16,3.4,4.34.46,13.45-2.65A6,6,0,0,1,83.06,11.19Z"/><path d="M107.42,150.66c.63-2.54-1.26-3.62-2.46-5-1.39-1.64-6.39-2.09-6.06-3.21.24-.81,6.19.21,8.34,3.58,1,1.53,3.41,3.67,5.43,2.66,1.26-.62,2.89-2.06,7.3-.71,3.5,1.07,3.8,1.35,3.71,1.82-.17.86-1.3.47-1.77.33-1.94-.61-8.74-3.08-10.51,1.67C110.65,153.78,107.3,153.08,107.42,150.66Z"/><path d="M889,95.85c.64-2.45,2.91-2.47,5.05-2.76,4.84-.64,5-1.21,5.46.11.1.29,1.11.34,3.08.75,2.67.54,4.45,6,5,8.61.17.83-.73.8-.92.27-4.18-11.43-8.3-6.33-9.24-5.86-3.5,1.74-3.07-4.11-8.41-1.14Z"/><path d="M271.19,79.18c.75-.75,7.37-3.36,11.47-3.72,1.84-.16,2.2-1,3.22-1,.83,0,1.46.84,2.54.94,4.4.41,11.91,4,12.84,4.72l0,0c-2,.27-6.32-2.87-10.82-2.73-2.06.06-2.09.85-3.09,1.69a2,2,0,0,1-2.72-.1c-2.92-4-10.6.59-13.46.22Z"/><path d="M441.39,19.58c-3.38-3.23-6.4-7-8.8-4.72-1.31,1.24-2.59,1-3.71-.47-3.5-4.45-8,1.2-11.29,2.1-.35-.67-.52-.59,6.37-4.43,1.86-1,4.31-.8,6.54-1.05,2-.21,2.69,1.1,5,1.69,2.78.73,3.38,2.41,5.42,5a2.73,2.73,0,0,1,.7,1.66Z"/><path d="M335.49,101.37c5.76-5.38,8.7-2.87,11.67-4.79,1.06-.68.72.57,5.26,2.42a9.75,9.75,0,0,1,4.52,3.73c-.54.43-.8,0-1.07-.19-5.06-3.77-7.28-.92-7.76-.73-3,1.2-1.63-2.07-5.51-2.24a9.23,9.23,0,0,0-4.71.93,6.56,6.56,0,0,1-2.35.92Z"/><path d="M559.57,66.92a3.69,3.69,0,0,1-2.11.21,29.55,29.55,0,0,0-6.89.66c-3.48.61-2.27,2.35-4.61,2.78-1.05.2-2.21-.48-2.19-1.47.08-3.41-5.9-8.92-8.11-10.16-.57-.32-.49-1.07,0-.89,8.51,3.21,8.49,10,11.45,8.23,1.49-.9.8,1.16,2.6.49C551.91,66,558,65.63,559.57,66.92Z"/><path d="M388.88,14.48c-.67-.11-.71-.75-.95-1.19-7.95-14.64-9.32-1.82-12-8.09-1.57-3.68-7.36-.68-8-.81-.31-.84,4.05-3.47,7.71-2.24a8.94,8.94,0,0,1,6.38,2c1.16.87,3.27-.31,6.71,9.07C388.88,13.59,389.29,14,388.88,14.48Z"/><path d="M195.79,30.41c2.18-.67,9.09-2.31,11.6-1.91a7,7,0,0,0,4.09-.12.9.9,0,0,1,1.06.19,3.3,3.3,0,0,0,2.61.66c4.25-.12,9.54,1.83,10.16,2.48-.15.47-.47.42-5.47-.81-1.79-.44-3.52.05-5.27.28-.5.06-.67.59-1,.89-3.92,3.47-2.1-4-12-2.06A13.9,13.9,0,0,1,195.79,30.41Z"/><path d="M168.92,118.33c-11.66-.86-7.71-.68-11.52-.14-1.12.16-1.34,1-1.9,1.55-1.11,1.05-2.65,1.07-3.35-.28-2.19-4.24-11.69-2.12-15.54-3.09a59.86,59.86,0,0,1,10.69-.73c2.92,0,4.71,1.34,6.5,0a.54.54,0,0,1,.81.15,2.51,2.51,0,0,0,2.51.8,40.83,40.83,0,0,1,11.18,1.3A3.22,3.22,0,0,1,168.92,118.33Z"/><path d="M243.9,89.84c.86-.84,6.17-2.93,9.55-3a11.64,11.64,0,0,0,4.24-.91c2.37,1.38,4.56-.2,8.34,1.16,3,1.08,4,.71,4.15,1.79-2,.07-9.15-2.38-10.38.86a1.93,1.93,0,0,1-3.35.33c-1.48-2.81-6.24-1.41-9.17-.69a7.18,7.18,0,0,1-3.4.43Z"/><path d="M8.83,90.9c3.54-6.74,6.86-4.42,9.42-6.38a.8.8,0,0,1,.86-.16c3.38,1.86,7.39.89,8.26,4.12-.5.45-.79-.13-1.16-.25a9.32,9.32,0,0,0-2.89-.69c-1.44,0-1.36.58-1.85,1.1-3.55,3.71-2.67-2.79-8.29-.43a7.18,7.18,0,0,0-2.24,1.58A2.91,2.91,0,0,1,8.83,90.9Z"/><path d="M307,91.41c-1.25,1.68-9.49,1.12-11.67,6.33-.71,1.69-2.44,1.66-3.4.08s-.12-4.3-5.43-7.34a21.57,21.57,0,0,0-4.23-2.34c-.28-.08-.61-.29-.39-.66s.95-.14,2.13.36c3.54,1.5,5.83,2.15,7.42,5.11.31.59,1.56,2.33,2,2,1.1-.69,2.47,0,3.6-.9C300.12,91.6,306.36,90.87,307,91.41Z"/><path d="M807.8,45.21s-8.19.64-9.85.84a18.4,18.4,0,0,0-3.3,1,2.71,2.71,0,0,0-1.49,1.67c-.91,1.94-3.46,1.66-3.95.55-1.24-2.83-8.46-1-13.34-.68a33.53,33.53,0,0,1,11.79-2.28,6.6,6.6,0,0,0,2.72-.4c3.63-1.6,1.39.74,4.67-.46C797.69,44.49,807.28,44.88,807.8,45.21Z"/><path d="M1000.55,143.5c-1.86-.26-2.62-2.18-6.17-3-2.25-.53-1.54.87-3.87,1.55-3.11.89-1.59-2.05-4.78-2.19-3.51-.15-7.84,4.77-9.41,3.84.52-1,1.1-1.26,6.51-4.25,2-1.1,3.59-1.11,7.13-1.74,1.27-.23,2.44-.63,3.49.76.68.9,5.19,1.14,7.07,5.07Z"/><path d="M150.73,36.83c7.36-.71,10.23,4.35,12.23,2.38a.55.55,0,0,1,.82.08c.86,1,2.84.24,4.09-.34,2.51-1.16,5.22-.93,7.87-1.35,0,1.62-9,1.76-10.54,4.84-.89,1.77-3,2-3.74.27C160.34,40.12,158,39.72,150.73,36.83Z"/><path d="M136.17,41.31c-1.71.17-1.5-1.47-5.26-2.22-3.58-.72-3.89,3.38-6.43-.2-2.21-3.1-8.28-.18-14.71,1.79-.22-.57.13-.63.38-.72,10.36-3.78,10.89-4.09,12.47-3.9s3.26-.65,4.94-.58C129.57,38,131.24,36.16,136.17,41.31Z"/><path d="M326.33,28.94c0-.51,3.32-2.4,6.49-2,4.64.63,4.89-.24,5.63,1,1.32,2.2,4.11,2,6.19,7.22.85,2.12,1.26,2.51.87,2.72s-.33.27-2.82-3.86c-.57-1-3.48-4.35-5.26-2.47-1.16,1.21-3.23.59-3.12-.45.07-.66.74-2.62-2.59-2.82a8.66,8.66,0,0,0-3.64.35A2.27,2.27,0,0,1,326.33,28.94Z"/><path d="M64.8,131.48c4.28-2.22,9.24-1.93,10.07-2,2.52-.24,1.81-2.49,3.15-1.14.51.51,1.86-.15,2.33-.5,2.27-1.69,9.29-4.11,9.79-3.51-.87,1-10,3.58-10.52,7.14a1.58,1.58,0,0,1-2.28,1.19c-1.45-.57-1.51-2.39-6.83-1.7-1.9.24-3.77.84-5.73.51Z"/><path d="M72.71,71.24c5.54,1,5.58,4.4,7.77,3.35a.72.72,0,0,1,.62.19c2.13,2.3,3-1.33,11.26-1.27,1.21,0,2.41-.57,3.65-.16-.1.59-.6.62-1,.69-4.82.84-6.68.54-10.91,3.33-1.28.85-.22,1.79-1.71,2.18a2.7,2.7,0,0,1-3.21-2.23c-.11-3.27-5.76-4.75-6.57-5.94Z"/><path d="M101.83,168.48c2.31.68,3.79,2.67,5.53,4.36,1.58,1.53,3.48-1,3.39,1.32,0,.41,1.31.44,1.68.4,3-.37,13.15.66,13.19.73a.59.59,0,0,1-.74.36c-3.26-.9-4.9.59-8,.11a7.54,7.54,0,0,0-6.55,2.05c-1.6,1-3.62.09-3.42-1.76.48-4.58-4.32-5.15-5.13-7.53Z"/><path d="M165.67,90.3c7.47,1.09,9.22,5,12.53,3.82.07,0,.17-.08.22-.05,2.64,1.11,2.86-1,12.17-1.48-3,1.93-5.57,1.18-8.6,2.45-2.52,1.06-2.06,1.94-2.87,2.8s-2.39,1-2.93-.19c-2-4.41-9.74-5.49-10.5-7.37Z"/><path d="M238.46,118.86c-6,.48-4.53-.9-9.76.29-2.28.51-3.89,4.28-5.74,1.32-2.15-3.45-6.5-2.85-11.39-2.85a14,14,0,0,1,8-.81c1.89.4,3.61,1.19,4.74.66,2.59-1.21,1.29,1,4.16.36C231.53,117.12,237.12,117.92,238.46,118.86Z"/><path d="M659.93,66.22c2.31-2.23,4.43-.81,8.76-2.15,2.23-.7.56,1.25,2.91,1.7,3.24.63,5.91,3.82,5.82,5-2.13-.27-5.81-5.18-8.5-2.81-.61.54-2.71,1.49-3.54-.48a1.86,1.86,0,0,0-1.77-1.21c-1.22-.07-2.45,0-3.68,0Z"/><path d="M86.94,156.83c-2.06,2.61-12.46-.68-14.77,2.66-1.17,1.69-2.87,1.68-3.84-.08-2.44-4.36-10.63-2.74-12.38-4.62,13.14,1.52,12.9,2.89,14.2,1.3.85-1.05.94,1.07,2.78.9,3.08-.29,6.13.38,9.2.43A12.19,12.19,0,0,0,86.94,156.83Z"/><path d="M310.89,8.76C313,2.06,320-.91,321.19.24c1.49,1.45,4.51,0,6.94,5a1.71,1.71,0,0,1-1.56-.87c-1.27-1.56-3.83-2.2-4.76-.68a1.22,1.22,0,0,1-.15.17C318,7.23,317.29-.44,313,6.33A7.91,7.91,0,0,1,311.11,9Z"/><path d="M851.69,157.79c-2.9-.45-3.21-5.23-8.61-1.75-3,1.91-3.87-4.29-7.65.41-4.63,5.75-2.1-2.12,3.13-3.34,2-.47,3.76-2.05,5.83-.42a4.52,4.52,0,0,0,1.73.61C848.69,153.91,850.29,155.72,851.69,157.79Z"/><path d="M234.46,148.41c-6.74,2.44-7.79,2.6-9.56,4.26-2.11,2-.7,3.23-2.53,3.57a2.25,2.25,0,0,1-2.4-1.72c-.87-4.26-11.07-5.22-12-6,.45-.8.94,0,6.64.89,4.15.62,4.8,4,7,2.39a.22.22,0,0,1,.22,0c2.22,1.51,3-1.45,7.26-2.46A17.85,17.85,0,0,1,234.46,148.41Z"/><path d="M48.65,31.92c3.79,1,4.14,1.52,5.73,1.52,1.14,0,1.12,1.63-1.73.59a12.69,12.69,0,0,1-4.09-2Z"/><path d="M804.76,86.11a3.94,3.94,0,0,1-3.14,1.7,5.87,5.87,0,0,1,3.17-1.67Z"/><path d="M335.54,101.42a5,5,0,0,1-2.24,1.75c.7-1.2.7-1.19,2.19-1.8Z"/><path d="M271.19,79.18c-2,1.67-5-.24,0,0Z"/><path d="M441.59,19.4c1.11,1,1.76,1.38,1.34,1.73s-1.26-.83-1.53-1.55Z"/><path d="M301.26,80.12c.89,0,1.91-.11,1.85.32-.08.6-.52.33-1.83-.34Z"/><path d="M365.15,21.82c-1,1.66-2.7.24,0,0Z"/><path d="M59.26,47.73a1.57,1.57,0,0,1-1,1.39c-.48-.54.38-1,1-1.42Z"/><path d="M258.23,57c.41-.41,1-1.06,1.07-.42.05.38-.7.36-1.09.39Z"/><path d="M72.6,71.38c-.45-.06-1.1-.06-.94-.49s.75.16,1.06.35Z"/><path d="M471.81,95.07l.16.08c-.2.1-.12.1-.32,0Z"/><path d="M90.17,83.08c.49.18-.16.57-.14.15C90,83.18,90.12,83.13,90.17,83.08Z"/><path d="M475.94,97.78c.31-.06.35.24.11.3S475.66,98,475.94,97.78Z"/><path d="M805.7,85.65a1.18,1.18,0,0,1-.94.46l0,0a1.37,1.37,0,0,1,.94-.46Z"/><path d="M311.11,9c-.11.33-.21.67-.6.8l0,0a1.3,1.3,0,0,1,.35-1Z"/><path d="M310.51,9.75l-.09.41c-.31-.23.07-.26.12-.39Z"/><path d="M318.4,66.7l0,0Z"/><path d="M674.26,38.46l0,0Z"/><polygon points="634 97.7 634.09 97.77 634.02 97.68 634 97.7"/><path d="M1014.41,113.43c-.54.54-.43.47-.43.47l.45-.46Z"/><path d="M1014.87,113l-.46.47h0l.46-.46Z"/><path d="M1013.48,114.35l0,0Z"/><path d="M1015.33,112.5l-.44.48A3.29,3.29,0,0,0,1015.33,112.5Z"/><polygon points="64.78 131.46 64.73 131.55 64.8 131.48 64.78 131.46"/><polygon points="889 95.83 888.94 95.91 889.02 95.85 889 95.83"/><path d="M117.08,80.57l.15.08-.14-.08Z"/><polygon points="394.28 112.51 394.35 112.57 394.3 112.49 394.28 112.51"/><path d="M1015.81,112l-.48.47s.46-.42.5-.45Z"/><polygon points="165.69 90.28 165.57 90.18 165.67 90.3 165.69 90.28"/><polygon points="1000.52 143.52 1000.64 143.61 1000.55 143.5 1000.52 143.52"/><path d="M519.72,51c.14-.16.28-.33.41-.5l.06.06-.5.42Z"/><polygon points="243.88 89.81 243.77 89.93 243.9 89.84 243.88 89.81"/><path d="M519.7,50.94l-.06.14S519.73,51,519.7,50.94Z"/><path d="M334.11,52.35l0,0Z"/><polygon points="101.79 168.52 101.68 168.37 101.83 168.48 101.79 168.52"/><path d="M1013.5,114.37c.57-.57.46-.49.46-.49l-.48.47Z"/></svg>