<svg version="1.1" xmlns="http://www.w3.org/2000/svg" viewBox="0 0 415.36363983154297 288" width="415.36363983154297" height="288">
  <!-- svg-source:excalidraw -->
  
  <defs>
    <style class="style-fonts">
      @font-face {
        font-family: "Virgil";
        src: url("https://excalidraw.com/Virgil.woff2");
      }
      @font-face {
        font-family: "Cascadia";
        src: url("https://excalidraw.com/Cascadia.woff2");
      }
      @font-face {
        font-family: "Assistant";
        src: url("https://excalidraw.com/Assistant-Regular.woff2");
      }
    </style>
    
  </defs>
  <g transform="translate(10 14) rotate(0 37.121212005615234 12.5)"><text x="0" y="17.52" font-family="Virgil, Segoe UI Emoji" font-size="20px" fill="#000000" text-anchor="start" style="white-space: pre;" direction="ltr" dominant-baseline="alphabetic">Planning</text></g><g transform="translate(290 100) rotate(0 57.681819915771484 12.5)"><text x="0" y="17.52" font-family="Virgil, Segoe UI Emoji" font-size="20px" fill="#000000" text-anchor="start" style="white-space: pre;" direction="ltr" dominant-baseline="alphabetic">Deliberation</text></g><g transform="translate(40 253) rotate(0 48.93939208984375 12.5)"><text x="0" y="17.52" font-family="Virgil, Segoe UI Emoji" font-size="20px" fill="#000000" text-anchor="start" style="white-space: pre;" direction="ltr" dominant-baseline="alphabetic">Agreement</text></g><g stroke-linecap="round"><g transform="translate(114 31) rotate(0 76 33)"><path d="M0 0 C25.33 11, 126.67 55, 152 66 M0 0 C25.33 11, 126.67 55, 152 66" stroke="#000000" stroke-width="1" fill="none"></path></g><g transform="translate(114 31) rotate(0 76 33)"><path d="M127.05 64.49 C135.33 64.99, 143.61 65.49, 152 66 M127.05 64.49 C136.11 65.04, 145.16 65.59, 152 66" stroke="#000000" stroke-width="1" fill="none"></path></g><g transform="translate(114 31) rotate(0 76 33)"><path d="M133.86 48.8 C139.88 54.51, 145.9 60.22, 152 66 M133.86 48.8 C140.44 55.04, 147.03 61.29, 152 66" stroke="#000000" stroke-width="1" fill="none"></path></g></g><mask></mask><g stroke-linecap="round"><g transform="translate(280 72) rotate(0 -77 -31)"><path d="M0 0 C-25.67 -10.33, -128.33 -51.67, -154 -62 M0 0 C-25.67 -10.33, -128.33 -51.67, -154 -62" stroke="#000000" stroke-width="1" fill="none"></path></g><g transform="translate(280 72) rotate(0 -77 -31)"><path d="M-129.01 -61.16 C-138.78 -61.49, -148.55 -61.82, -154 -62 M-129.01 -61.16 C-136.97 -61.43, -144.92 -61.69, -154 -62" stroke="#000000" stroke-width="1" fill="none"></path></g><g transform="translate(280 72) rotate(0 -77 -31)"><path d="M-135.4 -45.29 C-142.67 -51.82, -149.94 -58.35, -154 -62 M-135.4 -45.29 C-141.32 -50.61, -147.24 -55.93, -154 -62" stroke="#000000" stroke-width="1" fill="none"></path></g></g><mask></mask><g stroke-linecap="round"><g transform="translate(57 55) rotate(0 20 88)"><path d="M0 0 C6.67 29.33, 33.33 146.67, 40 176 M0 0 C6.67 29.33, 33.33 146.67, 40 176" stroke="#000000" stroke-width="1" fill="none"></path></g><g transform="translate(57 55) rotate(0 20 88)"><path d="M26.46 154.99 C31.53 162.85, 36.6 170.72, 40 176 M26.46 154.99 C29.79 160.16, 33.12 165.33, 40 176" stroke="#000000" stroke-width="1" fill="none"></path></g><g transform="translate(57 55) rotate(0 20 88)"><path d="M43.13 151.2 C41.96 160.48, 40.79 169.77, 40 176 M43.13 151.2 C42.36 157.3, 41.59 163.41, 40 176" stroke="#000000" stroke-width="1" fill="none"></path></g></g><mask></mask><g stroke-linecap="round"><g transform="translate(70 237) rotate(0 -21.5 -85.5)"><path d="M0 0 C-7.17 -28.5, -35.83 -142.5, -43 -171 M0 0 C-7.17 -28.5, -35.83 -142.5, -43 -171" stroke="#000000" stroke-width="1" fill="none"></path></g><g transform="translate(70 237) rotate(0 -21.5 -85.5)"><path d="M-28.98 -150.3 C-32.99 -156.23, -37.01 -162.15, -43 -171 M-28.98 -150.3 C-32.42 -155.38, -35.86 -160.47, -43 -171" stroke="#000000" stroke-width="1" fill="none"></path></g><g transform="translate(70 237) rotate(0 -21.5 -85.5)"><path d="M-45.56 -146.13 C-44.83 -153.25, -44.1 -160.37, -43 -171 M-45.56 -146.13 C-44.93 -152.24, -44.3 -158.34, -43 -171" stroke="#000000" stroke-width="1" fill="none"></path></g></g><mask></mask><g stroke-linecap="round"><g transform="translate(167 247) rotate(0 65 -50.5)"><path d="M0 0 C21.67 -16.83, 108.33 -84.17, 130 -101 M0 0 C21.67 -16.83, 108.33 -84.17, 130 -101" stroke="#000000" stroke-width="1" fill="none"></path></g><g transform="translate(167 247) rotate(0 65 -50.5)"><path d="M116.69 -79.83 C121.43 -87.36, 126.16 -94.89, 130 -101 M116.69 -79.83 C122 -88.28, 127.31 -96.72, 130 -101" stroke="#000000" stroke-width="1" fill="none"></path></g><g transform="translate(167 247) rotate(0 65 -50.5)"><path d="M106.2 -93.34 C114.67 -96.06, 123.13 -98.79, 130 -101 M106.2 -93.34 C115.69 -96.39, 125.18 -99.45, 130 -101" stroke="#000000" stroke-width="1" fill="none"></path></g></g><mask></mask><g stroke-linecap="round"><g transform="translate(334 155) rotate(0 -72 53)"><path d="M0 0 C-24 17.67, -120 88.33, -144 106 M0 0 C-24 17.67, -120 88.33, -144 106" stroke="#000000" stroke-width="1" fill="none"></path></g><g transform="translate(334 155) rotate(0 -72 53)"><path d="M-130.15 85.19 C-133.88 90.8, -137.62 96.41, -144 106 M-130.15 85.19 C-135.4 93.08, -140.66 100.97, -144 106" stroke="#000000" stroke-width="1" fill="none"></path></g><g transform="translate(334 155) rotate(0 -72 53)"><path d="M-120.01 98.96 C-126.48 100.86, -132.94 102.75, -144 106 M-120.01 98.96 C-129.11 101.63, -138.21 104.3, -144 106" stroke="#000000" stroke-width="1" fill="none"></path></g></g><mask></mask></svg>